STARTFONT 2.1
FONT -Monotype-Book Antiqua-Regular-I-Normal--36-360-75-75-P-178-iso8859-9
SIZE 36 75 75
FONTBOUNDINGBOX 46 46 -7 -11

STARTPROPERTIES 24
FOUNDRY "Monotype"
FAMILY_NAME "Book Antiqua"
WEIGHT_NAME "Regular"
SLANT "I"
SETWIDTH_NAME "Normal"
ADD_STYLE_NAME ""
PIXEL_SIZE 36
POINT_SIZE 360
RESOLUTION_X 75
RESOLUTION_Y 75
SPACING "P"
AVERAGE_WIDTH 178
CHARSET_REGISTRY "iso8859"
CHARSET_ENCODING "9"
FACE_NAME "Book Antiqua Italic ISO Latin5"
_DEC_DEVICE_FONTNAMES "PS=bookantiqua-it-lat5"
COPYRIGHT "Copyright (c) 1993 Monotype Typography Ltd."
CAP_HEIGHT 31
X_HEIGHT 21
WEIGHT 10
QUAD_WIDTH 23
DEFAULT_CHAR 160
FONT_DESCENT 11
FONT_ASCENT 35
ENDPROPERTIES

CHARS 191

STARTCHAR space
ENCODING 32
SWIDTH 250 0
DWIDTH 10 0
BBX 0 0 0 0
BITMAP
ENDCHAR

STARTCHAR exclam
ENCODING 33
SWIDTH 333 0
DWIDTH 13 0
BBX 8 27 3 0
BITMAP
0F
0F
0E
0E
0E
0E
0C
0C
0C
1C
18
18
18
18
10
10
10
30
30
00
00
00
60
F0
F0
F0
60
ENDCHAR

STARTCHAR quotedbl
ENCODING 34
SWIDTH 500 0
DWIDTH 19 0
BBX 11 11 6 15
BITMAP
F1E0
F1E0
F1E0
F1E0
F1E0
60E0
60C0
60C0
60C0
60C0
2040
ENDCHAR

STARTCHAR numbersign
ENCODING 35
SWIDTH 606 0
DWIDTH 23 0
BBX 21 27 1 0
BITMAP
01C0C0
0181C0
0181C0
0381C0
038180
038180
038180
030180
7FFFF8
7FFFF8
7BFFF8
070300
070300
070300
060700
060700
FFFFF0
FFFFF0
FFFFF0
0E0600
0E0600
0C0E00
0C0E00
0C0E00
1C0C00
1C0C00
1C0C00
ENDCHAR

STARTCHAR dollar
ENCODING 36
SWIDTH 500 0
DWIDTH 19 0
BBX 17 32 1 -4
BITMAP
003000
002000
007C00
01FF80
072700
0C6100
186100
184100
184000
384000
384000
384000
1CC000
1FC000
0FF800
07FC00
00BE00
008F00
018700
018700
010700
410600
410600
410E00
410C00
E31800
FF7000
3FC000
020000
020000
020000
060000
ENDCHAR

STARTCHAR percent
ENCODING 37
SWIDTH 889 0
DWIDTH 34 0
BBX 24 29 5 -1
BITMAP
00000C
0F0018
18C030
30C030
70E060
60E040
E0E0C0
E0E180
E0C180
61C300
618200
630600
1E0C00
000C00
001800
001000
003078
0060C6
004186
00C387
018307
018707
030707
020706
06070E
0C030C
0C0318
1800F0
300000
ENDCHAR

STARTCHAR ampersand
ENCODING 38
SWIDTH 778 0
DWIDTH 30 0
BBX 27 27 2 0
BITMAP
001F0000
007F8000
00C18000
01808000
03008000
07000000
07000080
07000060
07800020
03800020
03F80060
00F001E0
07003FC0
1C03FF00
3807F000
70067800
F00C1C00
E0081C00
E0001C00
E0001C00
F0001800
F0003800
78007000
7C00E000
3F038000
1FFF0000
03F80000
ENDCHAR

STARTCHAR quoteright
ENCODING 39
SWIDTH 278 0
DWIDTH 11 0
BBX 7 10 4 18
BITMAP
02
1C
1C
38
38
30
60
60
C0
80
ENDCHAR

STARTCHAR parenleft
ENCODING 40
SWIDTH 333 0
DWIDTH 13 0
BBX 12 35 3 -7
BITMAP
0010
0060
00C0
01C0
0380
0300
0600
0E00
1C00
1C00
3800
3800
7000
7000
7000
F000
E000
E000
E000
E000
E000
E000
E000
E000
E000
6000
6000
7000
3000
3000
1000
1800
0800
0C00
0400
ENDCHAR

STARTCHAR parenright
ENCODING 41
SWIDTH 333 0
DWIDTH 13 0
BBX 12 35 -2 -7
BITMAP
0100
0300
0100
0180
0080
00C0
00C0
00E0
0060
0060
0070
0070
0070
0070
0070
0070
0070
0070
0070
00F0
00E0
00E0
00E0
01C0
01C0
0180
0380
0300
0600
0E00
0C00
1800
3000
E000
4000
ENDCHAR

STARTCHAR asterisk
ENCODING 42
SWIDTH 389 0
DWIDTH 15 0
BBX 13 13 3 14
BITMAP
0100
01C0
6380
F300
7B00
1E08
03F8
0E78
7B00
7300
6180
0180
0100
ENDCHAR

STARTCHAR plus
ENCODING 43
SWIDTH 606 0
DWIDTH 23 0
BBX 19 19 2 4
BITMAP
00E000
00E000
00E000
00E000
00E000
00E000
00E000
00E000
FFFFE0
FFFFE0
FFFFE0
00E000
00E000
00E000
00E000
00E000
00E000
00E000
00E000
ENDCHAR

STARTCHAR comma
ENCODING 44
SWIDTH 250 0
DWIDTH 10 0
BBX 8 10 -1 -6
BITMAP
0F
1E
1C
1C
18
38
30
60
40
80
ENDCHAR

STARTCHAR minus
ENCODING 45
SWIDTH 606 0
DWIDTH 23 0
BBX 19 3 2 12
BITMAP
FFFFE0
FFFFE0
FFFFE0
ENDCHAR

STARTCHAR period
ENCODING 46
SWIDTH 250 0
DWIDTH 10 0
BBX 4 5 2 0
BITMAP
60
F0
F0
F0
60
ENDCHAR

STARTCHAR slash
ENCODING 47
SWIDTH 296 0
DWIDTH 11 0
BBX 21 33 -5 -6
BITMAP
000038
000070
000060
0000E0
0000C0
0001C0
000180
000380
000300
000700
000600
000E00
001C00
001C00
003800
003000
007000
006000
00E000
00C000
01C000
018000
038000
030000
070000
0E0000
0E0000
1C0000
180000
380000
300000
700000
E00000
ENDCHAR

STARTCHAR zero
ENCODING 48
SWIDTH 500 0
DWIDTH 19 0
BBX 17 27 1 0
BITMAP
00F800
038E00
060600
0E0700
1C0300
180380
380380
380380
700380
700380
700380
700380
700380
E00380
E00780
E00700
E00700
E00700
E00F00
E00E00
E00E00
E01C00
601C00
703800
307000
18E000
0F8000
ENDCHAR

STARTCHAR one
ENCODING 49
SWIDTH 500 0
DWIDTH 19 0
BBX 14 27 2 0
BITMAP
0018
00F0
07F0
3E70
3870
40F0
00E0
00E0
00E0
00E0
00E0
00C0
01C0
01C0
01C0
01C0
01C0
01C0
0380
0380
0380
0380
0380
0780
0780
1FC0
FFFC
ENDCHAR

STARTCHAR two
ENCODING 50
SWIDTH 500 0
DWIDTH 19 0
BBX 16 27 0 0
BITMAP
03F8
07FC
0E3E
080F
180F
3007
1007
0007
0007
0006
000E
000C
001C
0018
0030
0060
00E0
00C0
0180
0300
0600
0C00
1800
3000
3FFF
7FFF
FFFE
ENDCHAR

STARTCHAR three
ENCODING 51
SWIDTH 500 0
DWIDTH 19 0
BBX 16 27 1 0
BITMAP
01F8
07FE
061E
0C0F
0807
0807
0007
0006
0006
000C
0018
0060
07F0
043C
000E
000F
0007
0007
0007
0007
4007
400E
400E
C01C
E038
F8F0
3FC0
ENDCHAR

STARTCHAR four
ENCODING 52
SWIDTH 500 0
DWIDTH 19 0
BBX 18 27 0 0
BITMAP
000300
000700
000F00
001B00
003600
006600
004E00
00CE00
018E00
030C00
020C00
061C00
0C1C00
081C00
181C00
301800
601800
7FFFC0
FFFFC0
003800
003800
003000
003000
007000
007000
01FC00
0FFF80
ENDCHAR

STARTCHAR five
ENCODING 53
SWIDTH 500 0
DWIDTH 19 0
BBX 18 27 0 0
BITMAP
07FFC0
07FF80
07FF80
040000
040000
0C0000
0C0000
080000
080000
080000
19F000
17FC00
1C1E00
100F00
000F00
000700
000700
000700
000700
000700
400E00
400E00
C00C00
C01C00
E03800
F8E000
3F8000
ENDCHAR

STARTCHAR six
ENCODING 54
SWIDTH 500 0
DWIDTH 19 0
BBX 16 27 2 0
BITMAP
001F
007E
01C2
0300
0600
0600
0C00
1C00
1800
3800
3000
71F0
77FC
7C3C
E81E
F00E
F00E
E00E
E00E
E00E
E00C
E01C
6018
7030
7860
3FC0
0F00
ENDCHAR

STARTCHAR seven
ENCODING 55
SWIDTH 500 0
DWIDTH 19 0
BBX 17 27 3 0
BITMAP
3FFF80
3FFF80
7FFD00
000300
000200
000600
000C00
000800
001800
001000
003000
006000
006000
00C000
008000
018000
030000
030000
060000
040000
0C0000
180000
100000
300000
600000
600000
C00000
ENDCHAR

STARTCHAR eight
ENCODING 56
SWIDTH 500 0
DWIDTH 19 0
BBX 17 27 1 0
BITMAP
007C00
01FF00
030700
060380
0C0380
0C0380
1C0380
1C0300
1C0700
1E0E00
0F1800
07F000
01F000
03F800
0E7C00
181E00
301E00
700E00
600E00
E00E00
E00C00
E00C00
E01800
701800
787000
3FC000
0F0000
ENDCHAR

STARTCHAR nine
ENCODING 57
SWIDTH 500 0
DWIDTH 19 0
BBX 16 27 2 0
BITMAP
00F0
03FC
0E1E
1C0E
1807
3807
3007
7007
7007
7007
7007
700F
381B
3C37
1FEE
0F8E
000E
000C
001C
0018
0038
0030
8060
80E0
E1C0
7F00
7C00
ENDCHAR

STARTCHAR colon
ENCODING 58
SWIDTH 250 0
DWIDTH 10 0
BBX 6 18 2 0
BITMAP
18
3C
3C
3C
10
00
00
00
00
00
00
00
00
60
F0
F0
F0
60
ENDCHAR

STARTCHAR semicolon
ENCODING 59
SWIDTH 250 0
DWIDTH 10 0
BBX 9 24 -1 -6
BITMAP
0300
0780
0780
0780
0300
0000
0000
0000
0000
0000
0000
0000
0000
0000
0700
0E00
1E00
1C00
1800
1800
3000
2000
6000
C000
ENDCHAR

STARTCHAR less
ENCODING 60
SWIDTH 606 0
DWIDTH 23 0
BBX 19 20 2 3
BITMAP
000020
0000E0
0003E0
000FC0
007F00
01FC00
07E000
1F8000
7E0000
F00000
F80000
7E0000
1FC000
03F000
00FC00
003F00
000FC0
0003E0
000060
000020
ENDCHAR

STARTCHAR equal
ENCODING 61
SWIDTH 606 0
DWIDTH 23 0
BBX 19 9 2 9
BITMAP
FFFFE0
FFFFE0
FFFFE0
000000
000000
000000
FFFFE0
FFFFE0
FFFFE0
ENDCHAR

STARTCHAR greater
ENCODING 62
SWIDTH 606 0
DWIDTH 23 0
BBX 19 20 2 3
BITMAP
800000
E00000
F80000
7E0000
1FC000
07F000
00FC00
003F00
000FC0
0001E0
0003E0
000FC0
007F00
01FC00
07E000
1F8000
7E0000
F80000
E00000
800000
ENDCHAR

STARTCHAR question
ENCODING 63
SWIDTH 500 0
DWIDTH 19 0
BBX 12 27 5 0
BITMAP
1F80
7FE0
61F0
40F0
8070
0070
0070
00E0
00E0
01C0
0380
0700
0E00
1C00
1800
3000
2000
2000
1000
0000
0000
0000
6000
F000
F000
F000
6000
ENDCHAR

STARTCHAR at
ENCODING 64
SWIDTH 747 0
DWIDTH 28 0
BBX 28 31 1 -4
BITMAP
001FE000
00701C00
01C00600
03000100
06000080
0C0000C0
18000040
10000040
30039820
200C5820
60183820
60303820
40603020
C0E03020
C0C07020
C1C06040
C180E040
C180E040
C3816080
4382C180
43C4C300
41F8C610
60E0F810
20000020
30000060
180000C0
08000180
06000300
03000600
00E03800
001FC000
ENDCHAR

STARTCHAR A
ENCODING 65
SWIDTH 722 0
DWIDTH 27 0
BBX 27 27 -1 0
BITMAP
00006000
0000E000
0000F000
0001F000
0001B000
00037000
00067000
00063000
000C3800
000C3800
00183800
00303800
00303800
00601C00
00601C00
00FFFC00
01C01C00
01801C00
03000C00
03000E00
06000E00
06000E00
0C000E00
1C000E00
18000F00
3C000F80
FF007FE0
ENDCHAR

STARTCHAR B
ENCODING 66
SWIDTH 611 0
DWIDTH 23 0
BBX 19 27 2 0
BITMAP
3FFF00
0787C0
0701E0
0700E0
0700E0
0700E0
0700E0
0600E0
0E01C0
0E0380
0E0700
0E1C00
0FFC00
0C1F80
1C07C0
1C03C0
1C01C0
1801C0
1801C0
1801C0
3801C0
380380
380380
380700
300E00
7C3C00
FFF000
ENDCHAR

STARTCHAR C
ENCODING 67
SWIDTH 667 0
DWIDTH 25 0
BBX 23 27 3 0
BITMAP
001FF0
007FFE
01C03E
07000E
0E0004
1C0004
180004
380000
700000
700000
700000
F00000
E00000
E00000
E00000
E00000
E00000
E00000
F00000
F00000
700000
780000
3C000C
3E0018
1F80F0
07FFC0
01FF00
ENDCHAR

STARTCHAR D
ENCODING 68
SWIDTH 778 0
DWIDTH 30 0
BBX 26 27 1 0
BITMAP
3FFFE000
07FFFC00
07803E00
07800F00
07000780
07000380
070003C0
070003C0
070001C0
060001C0
0E0001C0
0E0001C0
0E0001C0
0E0001C0
0E0003C0
0E000380
1C000380
1C000380
1C000700
1C000600
1C000E00
1C001C00
38003800
38007000
3801C000
7FFF0000
FFF80000
ENDCHAR

STARTCHAR E
ENCODING 69
SWIDTH 611 0
DWIDTH 23 0
BBX 21 27 1 0
BITMAP
1FFFF8
07FFF8
03C010
03C010
038010
038010
038000
038000
038000
070000
070000
070000
07FFC0
07FF80
070000
0E0000
0E0000
0E0000
0E0000
0E0000
0E0010
1C0030
1C0020
1C0020
1C0060
3FFFE0
FFFFE0
ENDCHAR

STARTCHAR F
ENCODING 70
SWIDTH 556 0
DWIDTH 21 0
BBX 20 26 1 1
BITMAP
1FFFF0
07FFF0
03C030
03C010
038010
038010
038000
038000
038000
070000
070000
070000
070000
07FFC0
07FF80
060000
0E0000
0E0000
0E0000
0E0000
0E0000
0E0000
1C0000
1C0000
1C0000
FFC000
ENDCHAR

STARTCHAR G
ENCODING 71
SWIDTH 722 0
DWIDTH 27 0
BBX 25 27 2 0
BITMAP
001FF800
007FFF00
01E01F00
07000600
0E000200
1C000200
1C000200
38000000
30000000
70000000
70000000
F0000000
E0000000
E0000000
E0000000
E0000000
E001FF80
E0001E00
F0000E00
F0000C00
70000C00
78001C00
3C001C00
3E001C00
1F807C00
07FFF000
00FF0000
ENDCHAR

STARTCHAR H
ENCODING 72
SWIDTH 778 0
DWIDTH 30 0
BBX 31 27 0 0
BITMAP
0FFC07FE
0FF803FC
01C000E0
01C000E0
01C000E0
01C000E0
018000E0
038001C0
038001C0
038001C0
038001C0
038001C0
03FFFFC0
07FFFF80
07000380
07000380
07000380
07000380
07000380
0E000700
0E000700
0E000700
0E000700
0E000700
1E000F00
1E000F00
FFC07FE0
ENDCHAR

STARTCHAR I
ENCODING 73
SWIDTH 333 0
DWIDTH 13 0
BBX 14 26 0 0
BITMAP
0FFC
01E0
01C0
01C0
01C0
01C0
0180
0380
0380
0380
0380
0380
0700
0700
0700
0700
0700
0700
0600
0E00
0E00
0E00
0E00
0E00
1E00
FFC0
ENDCHAR

STARTCHAR J
ENCODING 74
SWIDTH 333 0
DWIDTH 13 0
BBX 15 34 -1 -8
BITMAP
07FE
00F0
00E0
00E0
00E0
00E0
00E0
00E0
01C0
01C0
01C0
01C0
01C0
01C0
01C0
0380
0380
0380
0380
0380
0380
0380
0700
0700
0700
0700
0700
0E00
0E00
0E00
0C00
1C00
3800
F000
ENDCHAR

STARTCHAR K
ENCODING 75
SWIDTH 667 0
DWIDTH 25 0
BBX 25 26 1 0
BITMAP
1FF80F80
01C01C00
01C01800
03803000
03806000
0380C000
03818000
03830000
03860000
038C0000
07180000
07700000
07600000
07700000
07780000
073C0000
0E1E0000
0E0F0000
0E070000
0E078000
0E03C000
1E01E000
1C00F000
1C007800
1E007C00
FFC03F00
ENDCHAR

STARTCHAR L
ENCODING 76
SWIDTH 556 0
DWIDTH 21 0
BBX 19 27 1 0
BITMAP
1FF800
0FE000
038000
038000
038000
038000
030000
070000
070000
070000
070000
070000
060000
0E0000
0E0000
0E0000
0E0000
0E0000
0E0000
1C0000
1C0020
1C0060
1C0060
1C0040
3C00C0
7FFFC0
FFFFC0
ENDCHAR

STARTCHAR M
ENCODING 77
SWIDTH 944 0
DWIDTH 36 0
BBX 37 27 -1 -1
BITMAP
03F00001F8
00780003C0
00780003C0
00780007C0
007C000EC0
005C000DC0
00DC0019C0
00DC0019C0
00CE0031C0
008E002180
018E006180
018E00C380
018700C380
0107018380
0307010380
0307830380
0203860380
0603860380
06038C0380
0601CC0380
0C01D80380
0C01F00380
0C01F00380
0C00E00780
1C00E00780
FF80C03FF0
0000400000
ENDCHAR

STARTCHAR N
ENCODING 78
SWIDTH 778 0
DWIDTH 30 0
BBX 31 27 0 -1
BITMAP
1FC001FE
03C00030
01E00030
01F00060
01F00060
01B80060
01380060
011C0060
031C0060
030E0040
030F00C0
030700C0
020380C0
060380C0
0601C080
0601E080
0600E180
0400F180
04007180
0C003980
0C003D00
0C001D00
0C001F00
1C000F00
1C000700
FF800700
00000300
ENDCHAR

STARTCHAR O
ENCODING 79
SWIDTH 778 0
DWIDTH 30 0
BBX 25 27 3 0
BITMAP
003FF000
00E07C00
03801E00
06000E00
0E000700
1C000780
18000380
38000380
70000380
70000380
70000380
F0000380
E0000380
E0000380
E0000380
E0000700
E0000700
E0000700
E0000E00
E0000E00
F0001C00
70001800
78003000
3C006000
1E01C000
0FFF0000
01F80000
ENDCHAR

STARTCHAR P
ENCODING 80
SWIDTH 611 0
DWIDTH 23 0
BBX 22 26 1 1
BITMAP
0FFFE0
01E0F8
01C038
01C03C
01C01C
01C01C
03801C
03801C
03801C
038038
038038
038070
0700E0
0723C0
073F00
070000
070000
070000
0E0000
0E0000
0E0000
0E0000
0E0000
1E0000
1E0000
FFE000
ENDCHAR

STARTCHAR Q
ENCODING 81
SWIDTH 778 0
DWIDTH 30 0
BBX 25 34 3 -7
BITMAP
003FF000
00E07C00
03801E00
07000E00
0E000700
1C000780
18000780
38000380
70000380
70000380
70000380
F0000380
E0000380
E0000380
E0000380
E0000700
E0000700
E0000700
E0000E00
F0000E00
F0001C00
70001800
78003000
3C006000
1F01C000
0FFF0000
01F80000
07C00000
0FF80000
103E0100
101F8300
1007E600
1001FE00
00007C00
ENDCHAR

STARTCHAR R
ENCODING 82
SWIDTH 667 0
DWIDTH 25 0
BBX 24 26 0 1
BITMAP
0FFFE0
01E0F8
01E03C
01E01C
01C01C
01C01C
01C01C
01C01C
01C038
038070
0380E0
0383C0
03BE00
039E00
030E00
070700
070780
070380
0701C0
0701E0
0700E0
0E0070
0E0078
0E003C
1E003C
FFC01F
ENDCHAR

STARTCHAR S
ENCODING 83
SWIDTH 556 0
DWIDTH 21 0
BBX 17 27 3 0
BITMAP
007E00
01FF80
070380
0C0100
1C0100
180100
380000
380000
380000
380000
3C0000
1F0000
1FF000
07FC00
01FE00
001F00
000F00
000700
000700
000700
C00600
C00600
C00C00
C01800
F07000
FFE000
3F8000
ENDCHAR

STARTCHAR T
ENCODING 84
SWIDTH 611 0
DWIDTH 23 0
BBX 22 27 3 0
BITMAP
FFFFFC
FFFFFC
C07808
C07008
807008
807008
007000
007000
00F000
00E000
00E000
00E000
00E000
00E000
00C000
01C000
01C000
01C000
01C000
01C000
01C000
038000
038000
038000
038000
07C000
3FF800
ENDCHAR

STARTCHAR U
ENCODING 85
SWIDTH 778 0
DWIDTH 30 0
BBX 27 27 4 0
BITMAP
FC007FE0
3C000F00
1C000E00
1C000E00
1C000E00
38000E00
38000E00
38001C00
38001C00
38001C00
30001C00
70001C00
70001C00
70001800
70003800
70003800
70003800
E0003800
E0003800
E0003000
E0007000
E000F000
E001B000
F0067000
7C1C7000
3FF07000
0780FE00
ENDCHAR

STARTCHAR V
ENCODING 86
SWIDTH 722 0
DWIDTH 27 0
BBX 25 27 4 0
BITMAP
FFC03F80
3E000700
1C000E00
1C000C00
0E000C00
0E001800
0E001800
0E003000
0E006000
0E006000
0E00C000
0600C000
07018000
07010000
07030000
07060000
07060000
070C0000
03080000
03980000
03B00000
03B00000
03E00000
03C00000
03C00000
03800000
01800000
ENDCHAR

STARTCHAR W
ENCODING 87
SWIDTH 944 0
DWIDTH 36 0
BBX 33 27 4 0
BITMAP
FF80407F80
3E00C01E00
1C00C00C00
1C01C00C00
1C01C01800
1C03C01800
1C03E01800
1C06E03000
1C06E03000
1C0CE02000
1C0CE06000
1C18E06000
1C1860C000
1C3070C000
1C20708000
1C60718000
1CC0718000
1CC0730000
1D803B0000
1D803A0000
1F003E0000
1F003E0000
1E003C0000
1E003C0000
1C003C0000
1C00180000
1800180000
ENDCHAR

STARTCHAR X
ENCODING 88
SWIDTH 722 0
DWIDTH 27 0
BBX 27 26 1 0
BITMAP
1FF83FE0
03C00700
01C00600
01E00C00
00E01C00
00F03800
00703000
00786000
0038C000
001D8000
001F0000
000F0000
000E0000
000F0000
001B0000
00338000
0063C000
0061C000
00C1E000
0180E000
03007000
06007000
0E003800
1C003C00
3C003C00
FF81FF80
ENDCHAR

STARTCHAR Y
ENCODING 89
SWIDTH 667 0
DWIDTH 25 0
BBX 24 27 3 0
BITMAP
380003
7C0007
FE001E
0F003C
070070
070060
0380C0
038180
03C100
01C300
01C600
00C400
00EC00
00E800
00F800
007800
007000
007000
007000
007000
00E000
00E000
00E000
00E000
00E000
01E000
0FFC00
ENDCHAR

STARTCHAR Z
ENCODING 90
SWIDTH 667 0
DWIDTH 25 0
BBX 23 27 1 0
BITMAP
0FFFFE
0FFFFE
08003C
080038
080078
1800F0
0001E0
0001C0
000380
000780
000F00
000E00
001C00
003800
007800
00F000
00E000
01C000
03C000
078000
0F0004
0E0004
1C0004
3C000C
78000C
FFFFFC
FFFFFC
ENDCHAR

STARTCHAR bracketleft
ENCODING 91
SWIDTH 333 0
DWIDTH 13 0
BBX 12 33 2 -6
BITMAP
07F0
0780
0700
0700
0700
0600
0E00
0E00
0E00
0E00
0E00
0C00
0C00
1C00
1C00
1C00
1C00
1C00
1800
1800
3800
3800
3800
3800
3800
7000
7000
7000
7000
7000
7000
F000
FF00
ENDCHAR

STARTCHAR backslash
ENCODING 92
SWIDTH 606 0
DWIDTH 23 0
BBX 9 33 7 -6
BITMAP
E000
E000
E000
6000
6000
7000
7000
7000
3000
3000
3800
3800
3800
1800
1800
1C00
1C00
1C00
0C00
0C00
0E00
0E00
0E00
0600
0600
0700
0700
0700
0300
0300
0380
0380
0380
ENDCHAR

STARTCHAR bracketright
ENCODING 93
SWIDTH 333 0
DWIDTH 13 0
BBX 12 33 -1 -6
BITMAP
07F0
0070
0070
0070
0070
0060
00E0
00E0
00E0
00E0
00E0
00C0
00C0
01C0
01C0
01C0
01C0
01C0
0180
0380
0380
0380
0380
0380
0300
0700
0700
0700
0700
0700
0700
0F00
FF00
ENDCHAR

STARTCHAR asciicircum
ENCODING 94
SWIDTH 606 0
DWIDTH 23 0
BBX 19 15 2 12
BITMAP
00E000
00E000
01F000
01B000
031800
071C00
060C00
0E0E00
0C0600
1C0700
180300
300180
3001C0
6000C0
E000E0
ENDCHAR

STARTCHAR underscore
ENCODING 95
SWIDTH 500 0
DWIDTH 19 0
BBX 19 2 0 -5
BITMAP
FFFFE0
FFFFE0
ENDCHAR

STARTCHAR quoteleft
ENCODING 96
SWIDTH 278 0
DWIDTH 11 0
BBX 7 10 3 18
BITMAP
02
06
0C
0C
18
38
38
70
F0
80
ENDCHAR

STARTCHAR a
ENCODING 97
SWIDTH 444 0
DWIDTH 17 0
BBX 15 18 1 0
BITMAP
00FA
03FE
0C0E
1C0C
180C
381C
301C
3018
7038
7038
6058
E0B0
E130
E330
E472
F87C
F078
4060
ENDCHAR

STARTCHAR b
ENCODING 98
SWIDTH 463 0
DWIDTH 18 0
BBX 15 28 2 0
BITMAP
0200
7E00
3E00
0E00
0C00
0C00
1C00
1C00
1C00
1800
183C
38FE
398E
3A0E
340E
380E
380E
700C
700C
701C
6018
6018
E030
E030
E060
F0C0
7F00
3C00
ENDCHAR

STARTCHAR c
ENCODING 99
SWIDTH 407 0
DWIDTH 15 0
BBX 14 18 1 0
BITMAP
00F8
03FC
0C1C
1808
3808
3008
7000
6000
6000
E000
E000
E000
E000
E008
E010
70E0
7F80
1E00
ENDCHAR

STARTCHAR d
ENCODING 100
SWIDTH 500 0
DWIDTH 19 0
BBX 18 28 1 0
BITMAP
000040
0007C0
001FC0
000380
000380
000380
000380
000300
000300
000700
00FB00
03FF00
040E00
0C0600
180600
380E00
300E00
700C00
701C00
601C00
602C00
E05800
E0D800
E19800
E33980
FC3E00
783C00
601000
ENDCHAR

STARTCHAR e
ENCODING 101
SWIDTH 389 0
DWIDTH 15 0
BBX 14 18 0 0
BITMAP
0070
03F8
061C
0C1C
181C
3818
3030
70E0
7700
7800
E000
E000
E000
E008
E010
7060
7F80
3E00
ENDCHAR

STARTCHAR f
ENCODING 102
SWIDTH 278 0
DWIDTH 11 0
BBX 22 38 -5 -11
BITMAP
00007C
0001F8
000318
000608
000E00
001C00
001C00
001C00
001C00
001800
003800
007F80
01FF80
003800
003000
003000
007000
007000
007000
006000
006000
00E000
00E000
00C000
00C000
00C000
01C000
018000
018000
018000
018000
030000
030000
020000
040000
CC0000
F80000
E00000
ENDCHAR

STARTCHAR g
ENCODING 103
SWIDTH 499 0
DWIDTH 19 0
BBX 20 29 -1 -11
BITMAP
00FE00
018F00
0207F0
0603E0
0C0380
0C0380
0C0380
1C0300
1C0700
1C0600
0E0C00
0F1800
07E000
00C000
018000
03C000
01E000
01F000
0EF800
183C00
301E00
600F00
600700
E00700
E00700
E00600
700C00
383800
1FC000
ENDCHAR

STARTCHAR h
ENCODING 104
SWIDTH 500 0
DWIDTH 19 0
BBX 18 28 0 0
BITMAP
018000
3F0000
070000
070000
070000
070000
060000
060000
0E0000
0E0000
0E0780
0C1F80
0C3380
1C4380
1C8380
1D0300
1A0700
1E0700
3C0700
380600
380E00
300E00
700C00
700C00
701C40
601D80
601F00
E01C00
ENDCHAR

STARTCHAR i
ENCODING 105
SWIDTH 278 0
DWIDTH 11 0
BBX 9 27 1 0
BITMAP
0300
0780
0780
0300
0000
0000
0000
0000
0000
0600
1E00
7E00
CE00
0C00
0C00
1C00
1C00
1800
1800
3800
3800
3000
7000
7300
7C00
7800
2000
ENDCHAR

STARTCHAR j
ENCODING 106
SWIDTH 278 0
DWIDTH 11 0
BBX 13 38 -3 -11
BITMAP
0030
0078
0078
0030
0000
0000
0000
0000
0000
0070
00E0
03E0
0CE0
00E0
00E0
00E0
00C0
00C0
01C0
01C0
0180
0180
0180
0380
0380
0300
0300
0300
0700
0600
0600
0600
0C00
0C00
0C00
9800
F000
E000
ENDCHAR

STARTCHAR k
ENCODING 107
SWIDTH 444 0
DWIDTH 17 0
BBX 17 28 0 0
BITMAP
018000
3F8000
0F0000
070000
070000
070000
070000
060000
060000
0E0000
0E0380
0E0700
0C1F00
0C3800
1C6000
1CC000
1D8000
198000
1B8000
3DC000
38C000
38E000
30E000
706000
707000
707300
603C00
E03800
ENDCHAR

STARTCHAR l
ENCODING 108
SWIDTH 278 0
DWIDTH 11 0
BBX 8 28 2 0
BITMAP
03
7F
0F
0E
0E
0E
0E
0C
0C
0C
1C
1C
18
18
38
38
38
30
30
70
70
70
60
60
E2
EC
F8
E0
ENDCHAR

STARTCHAR m
ENCODING 109
SWIDTH 778 0
DWIDTH 30 0
BBX 27 18 1 0
BITMAP
0E0701C0
3E1F07C0
6E3709C0
8C4731C0
0C876180
0D064180
1E068380
1E070380
1C0E0300
1C0E0300
180E0300
380C0700
380C0600
301C0600
301C0E20
70180EC0
70180F80
70380E00
ENDCHAR

STARTCHAR n
ENCODING 110
SWIDTH 556 0
DWIDTH 21 0
BBX 18 18 1 0
BITMAP
0E0780
3C1F80
5C3380
8C4380
1C8300
1D0300
1A0700
1E0700
1C0700
3C0600
380E00
380E00
300E00
300C00
701C40
701D80
701F00
E01C00
ENDCHAR

STARTCHAR o
ENCODING 111
SWIDTH 444 0
DWIDTH 17 0
BBX 15 18 1 0
BITMAP
01F8
063C
0C1C
180E
300E
300E
700E
600E
E00E
E00C
E00C
E01C
E018
E038
E030
7060
78C0
3F00
ENDCHAR

STARTCHAR p
ENCODING 112
SWIDTH 500 0
DWIDTH 19 0
BBX 18 28 0 -10
BITMAP
060780
1E1FC0
6E31C0
8E41C0
0E81C0
0D01C0
0F01C0
0E0180
0C0380
1C0380
1C0300
1C0700
180600
180E00
380C00
381000
3FE000
378000
300000
700000
700000
700000
600000
600000
E00000
E00000
E00000
C00000
ENDCHAR

STARTCHAR q
ENCODING 113
SWIDTH 463 0
DWIDTH 18 0
BBX 16 28 1 -10
BITMAP
00F9
03FF
0406
1C0E
180E
380E
300C
701C
701C
603C
602C
E058
E0B8
E138
E238
FC30
F830
6070
0070
0070
0070
0060
00E0
00E0
00E0
00E0
00E0
0180
ENDCHAR

STARTCHAR r
ENCODING 114
SWIDTH 389 0
DWIDTH 15 0
BBX 14 18 1 0
BITMAP
061C
1E38
3E78
CEF8
0C80
0D00
0F00
1E00
1C00
1C00
1C00
1800
3800
3800
3000
3000
7000
6000
ENDCHAR

STARTCHAR s
ENCODING 115
SWIDTH 389 0
DWIDTH 15 0
BBX 13 18 1 0
BITMAP
03E0
0FF8
1830
3010
6010
6000
7000
7C00
3FC0
1FF0
00F0
0070
8030
8030
8060
8040
F180
FE00
ENDCHAR

STARTCHAR t
ENCODING 116
SWIDTH 333 0
DWIDTH 13 0
BBX 11 25 2 0
BITMAP
0100
0700
0700
0700
0E00
0E00
0E00
0C00
3FE0
FFC0
1C00
1C00
1C00
1800
1800
3800
3800
3800
3000
3000
7080
7300
7E00
7800
2000
ENDCHAR

STARTCHAR u
ENCODING 117
SWIDTH 556 0
DWIDTH 21 0
BBX 18 18 1 0
BITMAP
060080
1E0380
7E0380
CE0300
0C0300
0C0700
1C0700
1C0600
180E00
381600
381600
302C00
304C00
709C40
731C80
7E1F00
7C1E00
300800
ENDCHAR

STARTCHAR v
ENCODING 118
SWIDTH 500 0
DWIDTH 19 0
BBX 18 18 0 0
BITMAP
7E4380
7FC780
408FC0
8101C0
8201C0
0601C0
0C0180
0C0180
1C0180
180300
380300
380200
380400
380C00
3C1800
1C3000
1FC000
0F8000
ENDCHAR

STARTCHAR w
ENCODING 119
SWIDTH 722 0
DWIDTH 27 0
BBX 26 18 0 0
BITMAP
7FC0C380
7F8387C0
61838FC0
810381C0
820300C0
060700C0
0C0700C0
0C0700C0
18060180
180E0180
380E0100
38160300
38160200
382E0400
386E0800
1CCF1000
1F87E000
0E03C000
ENDCHAR

STARTCHAR x
ENCODING 120
SWIDTH 500 0
DWIDTH 19 0
BBX 18 18 0 0
BITMAP
0700C0
0F83C0
1BC7C0
31C440
01C800
00D000
00D000
00E000
00E000
00E000
00E000
01A000
017000
027000
467080
4C3900
783E00
F01C00
ENDCHAR

STARTCHAR y
ENCODING 121
SWIDTH 500 0
DWIDTH 19 0
BBX 18 29 0 -11
BITMAP
040040
1E01C0
3E01C0
CE0180
0E0380
0E0380
0E0300
0E0700
0C0700
0C0E00
0C0E00
0C1600
0C2C00
0C4C00
0CDC00
0F9800
0F1800
0C1800
003800
003000
003000
006000
006000
004000
40C000
C08000
C10000
E60000
7C0000
ENDCHAR

STARTCHAR z
ENCODING 122
SWIDTH 444 0
DWIDTH 17 0
BBX 16 18 0 0
BITMAP
0F01
0FFF
1FF6
100C
1018
0010
0020
0040
0080
0180
0300
0600
0C02
0802
1004
3FFC
FFFC
40FC
ENDCHAR

STARTCHAR braceleft
ENCODING 123
SWIDTH 333 0
DWIDTH 13 0
BBX 16 35 1 -8
BITMAP
0007
0018
0030
0060
00C0
01C0
01C0
01C0
01C0
01C0
03C0
0380
0380
0300
0600
0C00
3000
E000
1000
1800
0C00
0C00
1C00
1C00
3C00
3800
3800
7800
7000
7000
6000
6000
3000
1800
0E00
ENDCHAR

STARTCHAR bar
ENCODING 124
SWIDTH 606 0
DWIDTH 23 0
BBX 2 34 11 -7
BITMAP
C0
C0
C0
C0
C0
C0
C0
C0
C0
C0
C0
C0
C0
C0
C0
C0
C0
C0
C0
C0
C0
C0
C0
C0
C0
C0
C0
C0
C0
C0
C0
C0
C0
C0
ENDCHAR

STARTCHAR braceright
ENCODING 125
SWIDTH 333 0
DWIDTH 13 0
BBX 16 35 -4 -8
BITMAP
0070
000C
0006
0006
0006
000E
000E
001E
001C
003C
0038
0038
0030
0030
0030
0018
000C
0007
0018
0030
0060
00C0
01C0
01C0
03C0
03C0
0380
0380
0380
0300
0300
0600
0C00
1800
E000
ENDCHAR

STARTCHAR asciitilde
ENCODING 126
SWIDTH 606 0
DWIDTH 23 0
BBX 19 6 2 10
BITMAP
3E0020
7F8020
FFF060
C1FFE0
803FC0
800780
ENDCHAR

STARTCHAR space
ENCODING 160
SWIDTH 250 0
DWIDTH 12 0
BBX 0 0 0 0
BITMAP
ENDCHAR

STARTCHAR exclamdown
ENCODING 161
SWIDTH 333 0
DWIDTH 13 0
BBX 8 27 1 -9
BITMAP
06
0F
0F
0F
06
00
00
00
0C
0C
0C
08
08
18
18
18
18
38
30
30
30
70
70
70
70
F0
E0
ENDCHAR

STARTCHAR cent
ENCODING 162
SWIDTH 500 0
DWIDTH 19 0
BBX 13 24 3 0
BITMAP
00C0
0080
00F0
03F8
0EB8
1998
3990
3110
7100
7100
6100
E300
E300
E200
E200
E210
E220
7FC0
7F80
1E00
0400
0400
0400
0C00
ENDCHAR

STARTCHAR sterling
ENCODING 163
SWIDTH 500 0
DWIDTH 19 0
BBX 18 27 1 0
BITMAP
000F80
003FC0
0061C0
01C0C0
038040
030080
070000
070000
070000
070000
070000
0E0000
0E0000
7FF800
0E0000
0E0000
0E0000
0E0000
0C0000
0C0000
0C0000
080040
180040
100080
7FFF80
E1FF80
800F00
ENDCHAR

STARTCHAR currency
ENCODING 164
SWIDTH 606 0
DWIDTH 23 0
BBX 20 20 2 4
BITMAP
40F020
E7FE70
7FFFE0
3E07C0
3801C0
7000E0
7000E0
E00070
E00070
E00070
E00070
E00070
600070
7000E0
7800E0
3C03C0
3E07C0
7FFFE0
E7FE70
40F020
ENDCHAR

STARTCHAR yen
ENCODING 165
SWIDTH 667 0
DWIDTH 25 0
BBX 24 27 2 0
BITMAP
180001
7C0007
FE000F
0F001C
070030
078060
0380C0
038080
01C180
01C300
01C200
00E600
00E400
00EC00
006800
1FFFE0
007000
007000
007000
007000
3FFFC0
00E000
00E000
00E000
00E000
03F800
0FFC00
ENDCHAR

STARTCHAR brokenbar
ENCODING 166
SWIDTH 606 0
DWIDTH 23 0
BBX 2 34 11 -7
BITMAP
C0
C0
C0
C0
C0
C0
C0
C0
C0
C0
C0
00
00
00
00
00
00
00
00
00
00
00
C0
C0
C0
C0
C0
C0
C0
C0
C0
C0
C0
C0
ENDCHAR

STARTCHAR section
ENCODING 167
SWIDTH 500 0
DWIDTH 19 0
BBX 17 35 1 -8
BITMAP
007E00
01FF80
030780
060100
040100
0C0100
0C0000
0C0000
0E0000
0F0000
078000
07E000
18F800
307C00
701E00
600F00
700700
700300
780300
3C0300
1F0600
0FCC00
03F800
00F800
003C00
001C00
000C00
000C00
400C00
C00C00
C01800
C01000
F06000
FFC000
1F0000
ENDCHAR

STARTCHAR dieresis
ENCODING 168
SWIDTH 333 0
DWIDTH 13 0
BBX 9 4 5 21
BITMAP
6180
E380
E380
C300
ENDCHAR

STARTCHAR copyright
ENCODING 169
SWIDTH 747 0
DWIDTH 28 0
BBX 27 27 1 0
BITMAP
003FC000
01E07000
03001800
04000600
08000300
101F9100
30607080
60C030C0
41801840
43800840
C3000020
87000020
87000020
87000020
87000020
87000020
C7800020
43800060
43800840
61C010C0
20706080
101F8180
18000300
04000600
03001C00
01E07000
003F8000
ENDCHAR

STARTCHAR ordfeminine
ENCODING 170
SWIDTH 333 0
DWIDTH 13 0
BBX 10 11 3 16
BITMAP
0FC0
3980
3180
6180
6380
E300
E700
CF00
DB40
F780
C200
ENDCHAR

STARTCHAR guillemotleft
ENCODING 171
SWIDTH 500 0
DWIDTH 19 0
BBX 15 14 2 2
BITMAP
0102
0304
0608
0C38
1870
38E0
E1C0
70C0
30E0
3860
1830
0C10
0408
0208
ENDCHAR

STARTCHAR logicalnot
ENCODING 172
SWIDTH 606 0
DWIDTH 23 0
BBX 19 9 2 9
BITMAP
FFFFE0
FFFFE0
FFFFE0
0000E0
0000E0
0000E0
0000E0
0000E0
0000E0
ENDCHAR

STARTCHAR hyphen
ENCODING 173
SWIDTH 333 0
DWIDTH 13 0
BBX 11 2 1 8
BITMAP
FFE0
FFC0
ENDCHAR

STARTCHAR registered
ENCODING 174
SWIDTH 747 0
DWIDTH 28 0
BBX 27 27 1 0
BITMAP
007FC000
01C07000
07001C00
0C000600
18000300
13FF0180
20E1C080
60E1E0C0
40E0E040
40E0E060
C0E0E020
80E1E020
80E38020
80FE0020
80E70020
80E70020
C0E38060
40E1C060
40E1C040
60E0E0C0
20E07080
13F87900
08000300
0C000600
03001800
01E0F000
003F8000
ENDCHAR

STARTCHAR macron
ENCODING 175
SWIDTH 333 0
DWIDTH 13 0
BBX 10 2 5 23
BITMAP
FFC0
FF80
ENDCHAR

STARTCHAR degree
ENCODING 176
SWIDTH 402 0
DWIDTH 15 0
BBX 12 12 3 15
BITMAP
1F80
3FC0
70E0
E070
C030
C030
C030
C030
6070
70E0
3FC0
1F80
ENDCHAR

STARTCHAR plusminus
ENCODING 177
SWIDTH 606 0
DWIDTH 23 0
BBX 19 23 2 0
BITMAP
00E000
00E000
00E000
00E000
00E000
00E000
00E000
00E000
FFFFE0
FFFFE0
FFFFE0
00E000
00E000
00E000
00E000
00E000
00E000
00E000
00E000
000000
FFFFE0
FFFFE0
FFFFE0
ENDCHAR

STARTCHAR twosuperior
ENCODING 178
SWIDTH 310 0
DWIDTH 12 0
BBX 10 16 1 11
BITMAP
0F00
1F80
21C0
60C0
00C0
00C0
0180
0180
0300
0600
0C00
0800
1000
2000
7FC0
FFC0
ENDCHAR

STARTCHAR threesuperior
ENCODING 179
SWIDTH 310 0
DWIDTH 12 0
BBX 10 16 1 11
BITMAP
0F00
1FC0
11C0
20C0
00C0
0180
0300
1F00
01C0
00C0
00C0
00C0
80C0
8180
C300
7C00
ENDCHAR

STARTCHAR acute
ENCODING 180
SWIDTH 333 0
DWIDTH 13 0
BBX 8 6 6 21
BITMAP
03
07
0E
18
30
C0
ENDCHAR

STARTCHAR mu
ENCODING 181
SWIDTH 598 0
DWIDTH 23 0
BBX 20 24 0 -6
BITMAP
01C070
01C070
01C0E0
0180E0
0380E0
0380C0
0381C0
0701C0
0701C0
070380
0E0380
0E0380
0E0700
0E0F10
1E1B10
1E3720
37E7E0
338380
200000
600000
E00000
E00000
E00000
C00000
ENDCHAR

STARTCHAR paragraph
ENCODING 182
SWIDTH 500 0
DWIDTH 19 0
BBX 19 36 1 -9
BITMAP
07FFE0
1FE380
3FE300
7FE300
FFE300
FFE300
FFE300
FFE300
FFE300
FFE300
7FE300
7FE300
3FE300
0FE300
006300
006300
006300
006300
006300
006300
006300
006300
006300
006300
006300
006300
006300
006300
006300
006300
006300
006300
006300
006300
006300
006300
ENDCHAR

STARTCHAR periodcentered
ENCODING 183
SWIDTH 250 0
DWIDTH 10 0
BBX 4 5 3 10
BITMAP
60
F0
F0
F0
60
ENDCHAR

STARTCHAR cedilla
ENCODING 184
SWIDTH 333 0
DWIDTH 13 0
BBX 8 7 0 -7
BITMAP
0C
08
1F
03
03
C7
7E
ENDCHAR

STARTCHAR onesuperior
ENCODING 185
SWIDTH 310 0
DWIDTH 12 0
BBX 9 16 2 10
BITMAP
0300
1F00
7700
4600
0600
0600
0600
0600
0600
0C00
0C00
0C00
0C00
0C00
1C00
FF80
ENDCHAR

STARTCHAR ordmasculine
ENCODING 186
SWIDTH 333 0
DWIDTH 13 0
BBX 10 11 2 16
BITMAP
0F80
31C0
60C0
60C0
E0C0
C0C0
C1C0
C180
C100
E200
7C00
ENDCHAR

STARTCHAR guillemotright
ENCODING 187
SWIDTH 500 0
DWIDTH 19 0
BBX 15 14 2 2
BITMAP
20C0
1060
1820
0C30
0C18
061C
070E
071C
0E38
1830
3060
20C0
C180
4100
ENDCHAR

STARTCHAR onequarter
ENCODING 188
SWIDTH 788 0
DWIDTH 30 0
BBX 27 29 2 -1
BITMAP
00000600
01000600
0E000C00
7A001800
C6001800
06003000
06002000
0E006000
0C00C000
0C00C000
0C018000
0C030000
0C0301C0
18060380
18040380
180C0580
FF180980
00181900
00303300
00602300
00604300
00C0C300
0080FFE0
01800700
03000600
03000600
06000F00
0C003FC0
1C000000
ENDCHAR

STARTCHAR onehalf
ENCODING 189
SWIDTH 788 0
DWIDTH 30 0
BBX 26 28 2 -1
BITMAP
00000600
07000C00
3E000800
E6001800
06003000
06003000
0E006000
0C004000
0C00C000
0C018000
0C010000
0C030F00
18061F80
180621C0
180C60C0
381800C0
FF1800C0
003001C0
00200180
00600300
00C00600
00C00C00
01800800
03001000
03002000
06007FC0
0400FFC0
1C000000
ENDCHAR

STARTCHAR threequarters
ENCODING 190
SWIDTH 788 0
DWIDTH 30 0
BBX 27 29 2 -2
BITMAP
0F000700
1FC00400
11C00C00
20C01800
00C01800
01803000
03006000
1F006000
01C0C000
00C08000
00C18040
00C301C0
80C30380
81860780
C30C0580
7C0C0980
00181980
00103180
00302300
00604300
0060C300
00C0FFE0
00800300
01800300
03000600
02000700
06003FC0
0C000000
0C000000
ENDCHAR

STARTCHAR questiondown
ENCODING 191
SWIDTH 500 0
DWIDTH 19 0
BBX 12 27 2 -9
BITMAP
0060
00F0
00F0
00F0
0060
0000
0000
0000
00C0
0040
0040
00C0
0180
0380
0700
0E00
1C00
3800
7000
F000
E000
E000
E010
F020
7860
7FE0
1F80
ENDCHAR

STARTCHAR Agrave
ENCODING 192
SWIDTH 722 0
DWIDTH 27 0
BBX 27 35 -1 0
BITMAP
00020000
00070000
00038000
0001C000
00006000
00003000
00000C00
00000000
00006000
0000E000
0000F000
0001F000
0001B000
00037000
00067000
00063000
000C3800
000C3800
00183800
00303800
00303800
00601C00
00601C00
00FFFC00
01C01C00
01801C00
03000C00
03000E00
06000E00
06000E00
0C000E00
1C000E00
18000F00
3C000F80
FF007FE0
ENDCHAR

STARTCHAR Aacute
ENCODING 193
SWIDTH 722 0
DWIDTH 27 0
BBX 27 35 -1 0
BITMAP
00000200
00000E00
00001E00
00003800
00007000
0000C000
00018000
00000000
00006000
0000E000
0000F000
0001F000
0001B000
00037000
00067000
00063000
000C3800
000C3800
00183800
00303800
00303800
00601C00
00601C00
00FFFC00
01C01C00
01801C00
03000C00
03000E00
06000E00
06000E00
0C000E00
1C000E00
18000F00
3C000F80
FF007FE0
ENDCHAR

STARTCHAR Acircumflex
ENCODING 194
SWIDTH 722 0
DWIDTH 27 0
BBX 27 35 -1 0
BITMAP
00003000
00007800
0000F800
0001CC00
00030C00
00060600
000C0300
00000000
00006000
0000E000
0000F000
0001F000
0001B000
00037000
00067000
00063000
000C3800
000C3800
00183800
00303800
00303800
00601C00
00601C00
00FFFC00
01C01C00
01801C00
03000C00
03000E00
06000E00
06000E00
0C000E00
1C000E00
18000F00
3C000F80
FF007FE0
ENDCHAR

STARTCHAR Atilde
ENCODING 195
SWIDTH 722 0
DWIDTH 27 0
BBX 27 33 -1 0
BITMAP
0003C080
0007F900
00047F00
00081E00
00000000
00000000
00006000
0000E000
0000F000
0001F000
0001B000
00037000
00067000
00063000
000C3800
000C3800
00183800
00303800
00303800
00601C00
00601C00
00FFFC00
01C01C00
01801C00
03000C00
03000E00
06000E00
06000E00
0C000E00
1C000E00
18000F00
3C000F80
FF007FE0
ENDCHAR

STARTCHAR Adieresis
ENCODING 196
SWIDTH 722 0
DWIDTH 27 0
BBX 26 32 -1 0
BITMAP
00018600
00038E00
00038E00
00010400
00000000
00006000
0000E000
0000E000
0001F000
0001B000
00037000
00067000
00067000
000C3000
000C3800
00183800
00383800
00303800
00603800
00601800
00FFFC00
00C01C00
01801C00
03001C00
03001C00
06000E00
06000E00
0C000E00
1C000E00
18000E00
3C000F00
FF807FC0
ENDCHAR

STARTCHAR Aring
ENCODING 197
SWIDTH 722 0
DWIDTH 27 0
BBX 26 35 -1 0
BITMAP
0000F800
00018C00
00010400
00010400
00018400
00018C00
0000F800
00000000
00006000
0000E000
0000E000
0001F000
0001B000
00037000
00067000
00063000
000C3000
000C3800
00183800
00303800
00303800
00601800
00601C00
00FFFC00
00C01C00
01801C00
03001C00
03000C00
06000E00
06000E00
0C000E00
1C000E00
18000E00
3C000F00
FF807FC0
ENDCHAR

STARTCHAR AE
ENCODING 198
SWIDTH 941 0
DWIDTH 36 0
BBX 34 27 0 0
BITMAP
0007FFFFC0
0000FFFFC0
00006700C0
0000E70040
0000CF0040
00018E0040
00018E0000
00030E0000
00060E0000
00060E0000
000C1C0000
00181C0000
00181C0200
00301FFE00
00601C0000
007FFC0000
00C0380000
0180380000
0380380000
0300380000
0700380000
0600380080
0C00700080
1C00700080
3800700180
7800780780
FF81FFFF80
ENDCHAR

STARTCHAR Ccedilla
ENCODING 199
SWIDTH 667 0
DWIDTH 25 0
BBX 23 34 3 -7
BITMAP
001FF0
007FFE
01C03E
07000C
0E0004
1C0004
180004
380000
300000
700000
700000
F00000
E00000
E00000
E00000
E00000
E00000
E00000
F00000
F00000
700000
780000
7C0008
3E0018
1F0070
07FFE0
01FF00
004000
004000
00F800
001800
001800
023800
03F000
ENDCHAR

STARTCHAR Egrave
ENCODING 200
SWIDTH 611 0
DWIDTH 23 0
BBX 21 35 1 0
BITMAP
004000
007000
007800
001C00
000600
000300
000080
000000
1FFFF8
07FFF8
03C010
03C010
038010
038010
038000
038000
038000
070000
070000
070000
07FFC0
07FF80
070000
0E0000
0E0000
0E0000
0E0000
0E0000
0E0010
1C0030
1C0020
1C0020
1C0060
3FFFE0
FFFFE0
ENDCHAR

STARTCHAR Eacute
ENCODING 201
SWIDTH 611 0
DWIDTH 23 0
BBX 21 35 1 0
BITMAP
000040
0000E0
0001C0
000300
000E00
001800
003000
000000
1FFFF8
07FFF8
03C010
03C010
038010
038010
038000
038000
038000
070000
070000
070000
07FFC0
07FF80
070000
0E0000
0E0000
0E0000
0E0000
0E0000
0E0010
1C0030
1C0020
1C0020
1C0060
3FFFE0
FFFFE0
ENDCHAR

STARTCHAR Ecircumflex
ENCODING 202
SWIDTH 611 0
DWIDTH 23 0
BBX 21 35 1 0
BITMAP
000300
000700
000D80
003980
0070C0
00C060
018020
000000
1FFFF8
07FFF8
03C010
03C010
038010
038010
038000
038000
038000
070000
070000
070000
07FFC0
07FF80
070000
0E0000
0E0000
0E0000
0E0000
0E0000
0E0010
1C0030
1C0020
1C0020
1C0060
3FFFE0
FFFFE0
ENDCHAR

STARTCHAR Edieresis
ENCODING 203
SWIDTH 611 0
DWIDTH 23 0
BBX 20 33 2 0
BITMAP
0070C0
0071C0
0071C0
0061C0
000000
000000
3FFFF0
07FFF0
038020
038020
038020
038020
070000
070000
070000
070000
070000
070000
0FFF80
0FFF00
0E0000
0E0000
0E0000
0E0000
1C0000
1C0000
1C0020
1C0060
1C0040
3C0040
3C00C0
7FFFC0
FFFFC0
ENDCHAR

STARTCHAR Igrave
ENCODING 204
SWIDTH 333 0
DWIDTH 13 0
BBX 14 34 0 0
BITMAP
0600
0780
03C0
00E0
0030
0018
0000
0000
0FFC
01E0
01C0
01C0
01C0
01C0
0180
0380
0380
0380
0380
0380
0700
0700
0700
0700
0700
0700
0600
0E00
0E00
0E00
0E00
0E00
1E00
FFC0
ENDCHAR

STARTCHAR Iacute
ENCODING 205
SWIDTH 333 0
DWIDTH 13 0
BBX 15 34 0 0
BITMAP
0006
000E
003C
0070
00C0
0180
0000
0000
0FFC
01E0
01C0
01C0
01C0
01C0
0180
0380
0380
0380
0380
0380
0700
0700
0700
0700
0700
0700
0600
0E00
0E00
0E00
0E00
0E00
1E00
FFC0
ENDCHAR

STARTCHAR Icircumflex
ENCODING 206
SWIDTH 333 0
DWIDTH 13 0
BBX 16 34 0 0
BITMAP
0070
00F8
01DC
038C
0606
0C03
0000
0000
0FFC
01E0
01C0
01C0
01C0
01C0
0180
0380
0380
0380
0380
0380
0700
0700
0700
0700
0700
0700
0600
0E00
0E00
0E00
0E00
0E00
1E00
FFC0
ENDCHAR

STARTCHAR Idieresis
ENCODING 207
SWIDTH 333 0
DWIDTH 13 0
BBX 15 32 0 0
BITMAP
0186
038E
038E
030C
0000
0000
0FFC
01E0
01C0
01C0
01C0
01C0
0180
0380
0380
0380
0380
0380
0700
0700
0700
0700
0700
0700
0600
0E00
0E00
0E00
0E00
0E00
1E00
FFC0
ENDCHAR

STARTCHAR Gbreve
ENCODING 208
SWIDTH 722 0
DWIDTH 27 0
BBX 25 35 2 0
BITMAP
00200C00
00300800
00101800
001C3000
000FE000
0007C000
00000000
00000000
001FF800
00FFFF00
01E01F00
07000600
0E000200
1C000200
1C000200
38000000
30000000
70000000
70000000
F0000000
E0000000
E0000000
E0000000
E0000000
E001FF80
E0001E00
F0000E00
F0000C00
70000C00
78001C00
3C001C00
3E001C00
1F807C00
07FFF000
00FF0000
ENDCHAR

STARTCHAR Ntilde
ENCODING 209
SWIDTH 778 0
DWIDTH 30 0
BBX 31 34 0 -1
BITMAP
0001E0C0
0003F880
00063F80
00040F00
00000000
00000000
00000000
1FC001FE
03C00030
01E00030
01F00060
01F00060
01B80060
01380060
011C0060
031C0060
030E0040
030F00C0
030700C0
020380C0
060380C0
0601C080
0601E080
0600E180
0400F180
04007180
0C003980
0C003D00
0C001D00
0C001F00
1C000F00
1C000700
FF800700
00000300
ENDCHAR

STARTCHAR Ograve
ENCODING 210
SWIDTH 778 0
DWIDTH 30 0
BBX 25 35 3 0
BITMAP
00100000
001C0000
001E0000
00070000
00038000
0000E000
00000000
00000000
003FF000
00E07C00
03801E00
06000E00
0E000700
1C000780
18000380
38000380
70000380
70000380
70000380
F0000380
E0000380
E0000380
E0000380
E0000700
E0000700
E0000700
E0000E00
E0000E00
F0001C00
70001800
78003000
3C006000
1E01C000
0FFF0000
01F80000
ENDCHAR

STARTCHAR Oacute
ENCODING 211
SWIDTH 778 0
DWIDTH 30 0
BBX 25 35 3 0
BITMAP
00001800
00007000
0000F000
0001C000
00038000
000E0000
00000000
00000000
003FF000
00E07C00
03801E00
06000E00
0E000700
1C000780
18000380
38000380
70000380
70000380
70000380
F0000380
E0000380
E0000380
E0000380
E0000700
E0000700
E0000700
E0000E00
E0000E00
F0001C00
70001800
78003000
3C006000
1E01C000
0FFF0000
01F80000
ENDCHAR

STARTCHAR Ocircumflex
ENCODING 212
SWIDTH 778 0
DWIDTH 30 0
BBX 25 35 3 0
BITMAP
0001C000
0003C000
00076000
000E6000
00183000
00701800
00000000
00000000
003FF000
00E07C00
03801E00
06000E00
0E000700
1C000780
18000380
38000380
70000380
70000380
70000380
F0000380
E0000380
E0000380
E0000380
E0000700
E0000700
E0000700
E0000E00
E0000E00
F0001C00
70001800
78003000
3C006000
1E01C000
0FFF0000
01F80000
ENDCHAR

STARTCHAR Otilde
ENCODING 213
SWIDTH 778 0
DWIDTH 30 0
BBX 25 34 3 0
BITMAP
000F0400
001FCC00
0033F800
0020F000
00000000
00000000
00000000
003FF000
00E07C00
03801E00
06000E00
0E000700
1C000780
18000380
38000380
70000380
70000380
70000380
F0000380
E0000380
E0000380
E0000380
E0000700
E0000700
E0000700
E0000E00
E0000E00
F0001C00
70001800
78003000
3C006000
1E01C000
0FFF0000
01F80000
ENDCHAR

STARTCHAR Odieresis
ENCODING 214
SWIDTH 778 0
DWIDTH 30 0
BBX 25 33 3 0
BITMAP
000C3800
001C3800
001C3800
001C3000
00000000
00000000
003FF000
00E07C00
03801E00
06000F00
0C000700
1C000780
18000380
38000380
70000380
70000380
70000380
F0000380
E0000380
E0000380
E0000380
E0000700
E0000700
E0000700
E0000E00
E0000E00
F0001C00
70001800
78003000
3C006000
1E03C000
0FFF0000
01F80000
ENDCHAR

STARTCHAR multiply
ENCODING 215
SWIDTH 606 0
DWIDTH 23 0
BBX 17 16 3 5
BITMAP
200200
F00780
780F00
3C1E00
1E3C00
0F7800
07F000
01C000
03E000
07F000
0F7800
1E3C00
3C1E00
F80F80
700700
200200
ENDCHAR

STARTCHAR Oslash
ENCODING 216
SWIDTH 778 0
DWIDTH 30 0
BBX 28 28 1 0
BITMAP
00000030
000FFC60
00381F40
00E00780
01C003C0
038007C0
07000DE0
06001DE0
0E0038E0
1C0070E0
1C00E0E0
1C01C0E0
3C0380E0
3C0300E0
380600E0
380C01E0
381801C0
383001C0
386001C0
38C00380
3D800380
3D000700
1E000600
1E000C00
1F003800
37C07000
E3FFC000
407E0000
ENDCHAR

STARTCHAR Ugrave
ENCODING 217
SWIDTH 778 0
DWIDTH 30 0
BBX 27 35 4 0
BITMAP
00300000
00380000
001C0000
000E0000
00030000
0000C000
00000000
00000000
FC007FE0
3C000F00
1C000E00
1C000E00
1C000E00
38000E00
38000E00
38001C00
38001C00
38001C00
30001C00
70001C00
70001C00
70001800
70003800
70003800
70003800
E0003800
E0003800
E0003000
E0007000
E000F000
E001B000
F0067000
7C1C7000
3FF07000
0780FE00
ENDCHAR

STARTCHAR Uacute
ENCODING 218
SWIDTH 778 0
DWIDTH 30 0
BBX 27 35 4 0
BITMAP
00003000
00007000
0000E000
0001C000
00030000
000C0000
00000000
00000000
FC007FE0
3C000F00
1C000E00
1C000E00
1C000E00
38000E00
38000E00
38001C00
38001C00
38001C00
30001C00
70001C00
70001C00
70001800
70003800
70003800
70003800
E0003800
E0003800
E0003000
E0007000
E000F000
E001B000
F0067000
7C1C7000
3FF07000
0780FE00
ENDCHAR

STARTCHAR Ucircumflex
ENCODING 219
SWIDTH 778 0
DWIDTH 30 0
BBX 27 35 4 0
BITMAP
00018000
0003C000
00074000
000C6000
00182000
00701800
00000000
00000000
FC007FE0
3C000F00
1C000E00
1C000E00
1C000E00
38000E00
38000E00
38001C00
38001C00
38001C00
30001C00
70001C00
70001C00
70001800
70003800
70003800
70003800
E0003800
E0003800
E0003000
E0007000
E000F000
E001B000
F0067000
7C1C7000
3FF07000
0780FE00
ENDCHAR

STARTCHAR Udieresis
ENCODING 220
SWIDTH 778 0
DWIDTH 30 0
BBX 26 33 4 0
BITMAP
0030C000
0071C000
0071C000
00618000
00000000
00000000
FC00FFC0
3C001F00
1C000E00
1C000E00
1C001C00
38001C00
38001C00
38001C00
38001C00
38001C00
30001800
70003800
70003800
70003800
70003800
70003800
70003800
E0007000
E0007000
E0007000
E000F000
E000F000
E0037000
F006E000
7C1CE000
3FF0F000
0780FE00
ENDCHAR

STARTCHAR Idotaccent
ENCODING 221
SWIDTH 333 0
DWIDTH 13 0
BBX 13 32 0 0
BITMAP
0060
00E0
00E0
00C0
0000
0000
1FF8
01C0
01C0
01C0
0380
0380
0380
0380
0380
0380
0700
0700
0700
0700
0700
0700
0E00
0E00
0E00
0E00
0E00
0E00
1C00
1C00
1C00
FFC0
ENDCHAR

STARTCHAR Scedilla
ENCODING 222
SWIDTH 556 0
DWIDTH 21 0
BBX 17 34 3 -7
BITMAP
007E00
03FF80
070380
0C0100
1C0100
180100
380000
380000
380000
380000
3C0000
1F0000
1FF000
07FC00
01FE00
001F00
000F00
000700
000700
000700
C00600
C00600
C00C00
C01800
F07000
FFE000
3F0000
040000
070000
0F8000
018000
018000
238000
3F0000
ENDCHAR

STARTCHAR germandbls
ENCODING 223
SWIDTH 500 0
DWIDTH 19 0
BBX 25 38 -6 -11
BITMAP
00001E00
0000FF00
00010780
00060380
000E0380
000C0380
001C0300
001C0700
001C0600
00180C00
00381800
00781000
01F83000
00306000
00307000
00707000
00707800
00703800
00703C00
00601C00
00600E00
00E00E00
00E00E00
00C20C00
00C20800
00C61800
01C7E000
01838000
01800000
01800000
01800000
03000000
03000000
02000000
06000000
CC000000
F8000000
E0000000
ENDCHAR

STARTCHAR agrave
ENCODING 224
SWIDTH 444 0
DWIDTH 17 0
BBX 15 27 1 0
BITMAP
0300
0380
01E0
0070
0018
000C
0000
0000
0000
00FA
03FE
0C0E
1C0C
180C
381C
301C
3018
7038
7038
6058
E0B0
E130
E270
E472
F87C
F078
4060
ENDCHAR

STARTCHAR aacute
ENCODING 225
SWIDTH 444 0
DWIDTH 17 0
BBX 16 27 1 0
BITMAP
0007
000F
001E
0038
0060
00C0
0000
0000
0000
00FA
03FE
0C0E
1C0C
180C
381C
301C
3018
7038
7038
6058
E0B0
E130
E270
E472
F87C
F078
4060
ENDCHAR

STARTCHAR acircumflex
ENCODING 226
SWIDTH 444 0
DWIDTH 17 0
BBX 16 27 1 0
BITMAP
0038
007C
00EC
01C6
0303
0601
0000
0000
0000
00FA
03FE
0C0E
1C0C
180C
381C
301C
3018
7038
7038
6058
E0B0
E130
E270
E472
F87C
F078
4060
ENDCHAR

STARTCHAR atilde
ENCODING 227
SWIDTH 444 0
DWIDTH 17 0
BBX 18 27 1 0
BITMAP
01E040
03F880
023F80
040F00
000000
000000
000000
000000
000000
00FA00
03FE00
0C0E00
1C0C00
180C00
381C00
301C00
301800
703800
703800
605800
E0B000
E13000
E27000
E47200
F87C00
F07800
406000
ENDCHAR

STARTCHAR adieresis
ENCODING 228
SWIDTH 444 0
DWIDTH 17 0
BBX 16 25 0 0
BITMAP
01C3
01C7
01C7
0186
0000
0000
0000
00FA
03FE
0C0E
1C0C
181C
381C
301C
3038
7038
7078
6058
E0B0
E130
E270
E472
F87C
F078
4060
ENDCHAR

STARTCHAR aring
ENCODING 229
SWIDTH 444 0
DWIDTH 17 0
BBX 15 28 0 0
BITMAP
007C
00C6
0082
0082
0082
00CE
007C
0000
0000
0000
00FA
03FE
040E
0C0C
180C
381C
381C
3018
7038
7038
6058
E0B0
E0B0
E330
E672
FC7C
F078
4020
ENDCHAR

STARTCHAR ae
ENCODING 230
SWIDTH 638 0
DWIDTH 24 0
BBX 24 18 0 0
BITMAP
03E03E
0FF0CF
183907
101E07
101E06
001C0E
001C1C
001C70
07FF80
3C1800
701800
603800
E03800
E03802
E05804
E09C18
7F1FE0
3C0780
ENDCHAR

STARTCHAR ccedilla
ENCODING 231
SWIDTH 407 0
DWIDTH 15 0
BBX 14 25 1 -7
BITMAP
00F8
03FC
0C18
1808
3808
3008
7000
6000
6000
E000
E000
E000
E000
E008
E030
70E0
7F80
3E00
0400
0E00
1F00
0380
0380
6700
3E00
ENDCHAR

STARTCHAR egrave
ENCODING 232
SWIDTH 389 0
DWIDTH 15 0
BBX 14 27 0 0
BITMAP
0600
0780
03C0
00E0
0030
001C
0000
0000
0000
0070
03F8
061C
0C1C
181C
3818
3030
70E0
7700
7800
E000
E000
E000
E008
E010
7060
7F80
3E00
ENDCHAR

STARTCHAR eacute
ENCODING 233
SWIDTH 389 0
DWIDTH 15 0
BBX 15 27 0 0
BITMAP
0006
000E
001C
0030
0060
0180
0000
0000
0000
0070
03F8
061C
0C1C
181C
3818
3030
70E0
7700
7800
E000
E000
E000
E008
E010
7060
7F80
3E00
ENDCHAR

STARTCHAR ecircumflex
ENCODING 234
SWIDTH 389 0
DWIDTH 15 0
BBX 16 27 0 0
BITMAP
0030
0078
00DC
018C
0306
0C03
0000
0000
0000
0070
03F8
061C
0C1C
181C
3818
3030
70E0
7700
7800
E000
E000
E000
E008
E010
7060
7F80
3E00
ENDCHAR

STARTCHAR edieresis
ENCODING 235
SWIDTH 389 0
DWIDTH 15 0
BBX 15 25 1 0
BITMAP
0386
038E
038E
030C
0000
0000
0000
0070
03F8
061C
0C1C
181C
3818
3030
70E0
7700
7800
E000
E000
E000
E008
E010
7060
7F80
1E00
ENDCHAR

STARTCHAR igrave
ENCODING 236
SWIDTH 278 0
DWIDTH 11 0
BBX 10 27 1 0
BITMAP
3000
3800
1C00
0700
0380
00C0
0000
0000
0000
0600
1E00
7E00
CE00
0C00
0C00
1C00
1C00
1800
1800
3800
3800
3000
7000
7300
7C00
7800
2000
ENDCHAR

STARTCHAR iacute
ENCODING 237
SWIDTH 278 0
DWIDTH 11 0
BBX 12 27 1 0
BITMAP
0030
0070
00E0
0180
0300
0C00
0000
0000
0000
0600
1E00
7E00
CE00
0C00
0C00
1C00
1C00
1800
1800
3800
3800
3000
7000
7300
7C00
7800
2000
ENDCHAR

STARTCHAR icircumflex
ENCODING 238
SWIDTH 278 0
DWIDTH 11 0
BBX 13 27 1 0
BITMAP
0180
03C0
06E0
0C60
1830
6018
0000
0000
0000
0600
1E00
7E00
CE00
0C00
0C00
1C00
1C00
1800
1800
3800
3800
3000
7000
7300
7C00
7800
2000
ENDCHAR

STARTCHAR idieresis
ENCODING 239
SWIDTH 278 0
DWIDTH 11 0
BBX 12 25 1 0
BITMAP
0C30
1C70
1C70
1860
0000
0000
0000
0600
1E00
7E00
CE00
0C00
0C00
1C00
1C00
1800
1800
3800
3800
3000
7000
7300
7C00
7800
2000
ENDCHAR

STARTCHAR gbreve
ENCODING 240
SWIDTH 499 0
DWIDTH 19 0
BBX 20 38 -1 -11
BITMAP
018020
008040
0080C0
00E180
007F00
003E00
000000
000000
000000
00FE00
018F00
0207F0
0603E0
0C0380
0C0380
0C0380
1C0300
1C0700
1C0600
0E0C00
0F1800
07E000
00C000
018000
03C000
01E000
01F000
0EF800
183C00
301E00
600F00
600700
E00700
E00700
E00600
700C00
383800
1FC000
ENDCHAR

STARTCHAR ntilde
ENCODING 241
SWIDTH 556 0
DWIDTH 21 0
BBX 19 27 1 0
BITMAP
00F020
01FC40
011FC0
030780
000000
000000
000000
000000
000000
0E0780
3C1F80
5C3380
8C4380
1C8300
1D0300
1A0700
1E0700
1C0700
3C0600
380E00
380E00
300E00
300C00
701C40
701D80
701F00
E01C00
ENDCHAR

STARTCHAR ograve
ENCODING 242
SWIDTH 444 0
DWIDTH 17 0
BBX 15 27 1 0
BITMAP
0300
0380
01C0
0060
0018
000C
0000
0000
0000
01F8
063C
0C1C
180E
300E
300E
700E
600E
E00E
E00C
E00C
E01C
E018
E018
E030
7060
78C0
3F00
ENDCHAR

STARTCHAR oacute
ENCODING 243
SWIDTH 444 0
DWIDTH 17 0
BBX 16 27 1 0
BITMAP
0007
000E
001C
0030
0060
0180
0000
0000
0000
01F8
063C
0C1C
180E
300E
300E
700E
600E
E00E
E00C
E00C
E01C
E018
E018
E030
7060
78C0
3F00
ENDCHAR

STARTCHAR ocircumflex
ENCODING 244
SWIDTH 444 0
DWIDTH 17 0
BBX 16 28 1 0
BITMAP
0010
0038
007C
00CC
0186
0302
0C01
0000
0000
0000
01F8
063C
0C1C
180E
300E
300E
700E
600E
E00E
E00C
E00C
E01C
E018
E018
E030
7060
78C0
3F00
ENDCHAR

STARTCHAR otilde
ENCODING 245
SWIDTH 444 0
DWIDTH 17 0
BBX 17 27 1 0
BITMAP
01E080
03F880
067F00
041E00
000000
000000
000000
000000
000000
01F800
063C00
0C1C00
180E00
300E00
300E00
700E00
600E00
E00E00
E00C00
E00C00
E01C00
E01800
E01800
E03000
706000
78C000
3F0000
ENDCHAR

STARTCHAR odieresis
ENCODING 246
SWIDTH 444 0
DWIDTH 17 0
BBX 16 25 1 0
BITMAP
0187
0387
0387
0106
0000
0000
0000
03F8
043C
081C
180E
300E
300E
700E
600E
E00E
E00C
E01C
E01C
E018
E038
E030
7060
78C0
3F00
ENDCHAR

STARTCHAR divide
ENCODING 247
SWIDTH 606 0
DWIDTH 23 0
BBX 18 16 3 5
BITMAP
01E000
01E000
01E000
01E000
000000
000000
000000
FFFFC0
FFFFC0
FFFFC0
000000
000000
00C000
01E000
01E000
01E000
ENDCHAR

STARTCHAR oslash
ENCODING 248
SWIDTH 444 0
DWIDTH 17 0
BBX 18 21 -1 -1
BITMAP
000040
0000C0
007F80
018F00
030700
060780
0C0D80
0C1B80
1C3380
186380
184380
38C300
398300
3B0700
3E0600
3C0600
380C00
1C1800
3E3000
EFC000
400000
ENDCHAR

STARTCHAR ugrave
ENCODING 249
SWIDTH 556 0
DWIDTH 21 0
BBX 18 27 1 0
BITMAP
018000
01C000
00E000
003800
001C00
000600
000000
000000
000000
060080
1E0380
7E0380
CE0300
0C0300
0C0700
1C0700
1C0600
180E00
381600
381600
302C00
304C00
709C40
731C80
7E1F00
7C1E00
301800
ENDCHAR

STARTCHAR uacute
ENCODING 250
SWIDTH 556 0
DWIDTH 21 0
BBX 18 27 1 0
BITMAP
000180
000380
000700
000C00
001800
006000
000000
000000
000000
060080
1E0380
7E0380
CE0300
0C0300
0C0700
1C0700
1C0600
180E00
381600
381600
302C00
304C00
709C40
731C80
7E1F00
7C1E00
301800
ENDCHAR

STARTCHAR ucircumflex
ENCODING 251
SWIDTH 556 0
DWIDTH 21 0
BBX 18 27 1 0
BITMAP
000C00
001E00
003600
006300
00C180
0300C0
000000
000000
000000
060080
1E0380
7E0380
CE0300
0C0300
0C0700
1C0700
1C0600
180E00
381600
381600
302C00
304C00
709C40
731C80
7E1F00
7C1E00
301800
ENDCHAR

STARTCHAR udieresis
ENCODING 252
SWIDTH 556 0
DWIDTH 21 0
BBX 18 25 1 0
BITMAP
006180
00E380
00E380
00C300
000000
000000
000000
060080
1E0380
7E0300
CE0300
0C0300
0C0700
1C0600
1C0E00
180600
381E00
381400
302C00
304C00
709C40
731C80
7E1F00
7C1E00
301800
ENDCHAR

STARTCHAR dotlessi
ENCODING 253
SWIDTH 278 0
DWIDTH 11 0
BBX 8 18 1 0
BITMAP
0E
1E
7E
8E
0C
0C
1C
1C
18
18
38
38
30
30
71
72
7C
70
ENDCHAR

STARTCHAR scedilla
ENCODING 254
SWIDTH 389 0
DWIDTH 15 0
BBX 13 25 1 -7
BITMAP
03E0
0FF8
1830
3010
6010
6000
7000
7C00
3FC0
1FF0
00F0
0030
8030
8030
8020
8040
F180
FE00
0800
1000
3F00
0300
0300
8700
FC00
ENDCHAR

STARTCHAR ydieresis
ENCODING 255
SWIDTH 500 0
DWIDTH 19 0
BBX 18 36 0 -11
BITMAP
00E180
00E380
00E380
00C300
000000
000000
000000
0400C0
1E01C0
3E0180
CE0380
0E0380
0E0300
0E0700
0E0700
0C0600
0C0E00
0C0E00
0C1600
0C2C00
0C6C00
1CDC00
1F9800
0F1800
0C1800
003000
003000
003000
006000
006000
004000
40C000
C08000
C10000
E60000
7C0000
ENDCHAR
ENDFONT
